<mxfile host="app.diagrams.net" modified="2023-11-20T05:58:47.438Z" agent="Mozilla/5.0 (Macintosh; Intel Mac OS X 10_15_7) AppleWebKit/537.36 (KHTML, like Gecko) Chrome/119.0.0.0 Safari/537.36" etag="OwqP44gUmXdb5La3FSBe" version="22.1.3" type="github">
  <diagram name="Page-1" id="EWzV-dTjilRo6PZKsoMi">
    <mxGraphModel dx="2924" dy="2250" grid="1" gridSize="10" guides="1" tooltips="1" connect="1" arrows="1" fold="1" page="1" pageScale="1" pageWidth="850" pageHeight="1100" math="0" shadow="0">
      <root>
        <mxCell id="0" />
        <mxCell id="1" parent="0" />
        <mxCell id="BOanCVDa7H69rcZrNI1h-5" style="edgeStyle=orthogonalEdgeStyle;rounded=0;orthogonalLoop=1;jettySize=auto;html=1;" edge="1" parent="1" source="BOanCVDa7H69rcZrNI1h-1" target="BOanCVDa7H69rcZrNI1h-2">
          <mxGeometry relative="1" as="geometry" />
        </mxCell>
        <mxCell id="BOanCVDa7H69rcZrNI1h-6" value="历史数据" style="edgeLabel;html=1;align=center;verticalAlign=middle;resizable=0;points=[];" vertex="1" connectable="0" parent="BOanCVDa7H69rcZrNI1h-5">
          <mxGeometry x="-0.1862" y="-1" relative="1" as="geometry">
            <mxPoint as="offset" />
          </mxGeometry>
        </mxCell>
        <mxCell id="BOanCVDa7H69rcZrNI1h-1" value="图数据库&lt;br&gt;（Neo4j）" style="shape=cylinder3;whiteSpace=wrap;html=1;boundedLbl=1;backgroundOutline=1;size=15;" vertex="1" parent="1">
          <mxGeometry x="-800" y="-840" width="75" height="100" as="geometry" />
        </mxCell>
        <mxCell id="BOanCVDa7H69rcZrNI1h-13" style="edgeStyle=orthogonalEdgeStyle;rounded=0;orthogonalLoop=1;jettySize=auto;html=1;entryX=0;entryY=0.5;entryDx=0;entryDy=0;" edge="1" parent="1" source="BOanCVDa7H69rcZrNI1h-2" target="BOanCVDa7H69rcZrNI1h-12">
          <mxGeometry relative="1" as="geometry">
            <mxPoint x="-290" y="-790" as="targetPoint" />
          </mxGeometry>
        </mxCell>
        <mxCell id="BOanCVDa7H69rcZrNI1h-14" value="风险计算结果展示" style="edgeLabel;html=1;align=center;verticalAlign=middle;resizable=0;points=[];" vertex="1" connectable="0" parent="BOanCVDa7H69rcZrNI1h-13">
          <mxGeometry x="-0.1333" relative="1" as="geometry">
            <mxPoint x="15" as="offset" />
          </mxGeometry>
        </mxCell>
        <mxCell id="BOanCVDa7H69rcZrNI1h-2" value="风控系统后端API" style="rounded=1;whiteSpace=wrap;html=1;" vertex="1" parent="1">
          <mxGeometry x="-580" y="-820" width="120" height="60" as="geometry" />
        </mxCell>
        <mxCell id="BOanCVDa7H69rcZrNI1h-8" style="edgeStyle=orthogonalEdgeStyle;rounded=0;orthogonalLoop=1;jettySize=auto;html=1;" edge="1" parent="1" target="BOanCVDa7H69rcZrNI1h-2">
          <mxGeometry relative="1" as="geometry">
            <mxPoint x="-520" y="-880" as="sourcePoint" />
          </mxGeometry>
        </mxCell>
        <mxCell id="BOanCVDa7H69rcZrNI1h-9" value="实时数据" style="edgeLabel;html=1;align=center;verticalAlign=middle;resizable=0;points=[];" vertex="1" connectable="0" parent="BOanCVDa7H69rcZrNI1h-8">
          <mxGeometry x="-0.2073" y="-1" relative="1" as="geometry">
            <mxPoint as="offset" />
          </mxGeometry>
        </mxCell>
        <mxCell id="BOanCVDa7H69rcZrNI1h-4" value="用户" style="shape=umlActor;verticalLabelPosition=bottom;verticalAlign=top;html=1;outlineConnect=0;" vertex="1" parent="1">
          <mxGeometry x="-535" y="-970" width="30" height="60" as="geometry" />
        </mxCell>
        <mxCell id="BOanCVDa7H69rcZrNI1h-10" style="edgeStyle=orthogonalEdgeStyle;rounded=0;orthogonalLoop=1;jettySize=auto;html=1;entryX=0.5;entryY=1;entryDx=0;entryDy=0;entryPerimeter=0;" edge="1" parent="1" source="BOanCVDa7H69rcZrNI1h-2" target="BOanCVDa7H69rcZrNI1h-1">
          <mxGeometry relative="1" as="geometry">
            <Array as="points">
              <mxPoint x="-520" y="-720" />
              <mxPoint x="-762" y="-720" />
            </Array>
          </mxGeometry>
        </mxCell>
        <mxCell id="BOanCVDa7H69rcZrNI1h-11" value="风险计算结果缓存" style="edgeLabel;html=1;align=center;verticalAlign=middle;resizable=0;points=[];" vertex="1" connectable="0" parent="BOanCVDa7H69rcZrNI1h-10">
          <mxGeometry x="0.1372" relative="1" as="geometry">
            <mxPoint x="-8" as="offset" />
          </mxGeometry>
        </mxCell>
        <mxCell id="BOanCVDa7H69rcZrNI1h-12" value="风控图谱页面" style="swimlane;whiteSpace=wrap;html=1;startSize=23;" vertex="1" parent="1">
          <mxGeometry x="-330" y="-860" width="130" height="140" as="geometry" />
        </mxCell>
      </root>
    </mxGraphModel>
  </diagram>
</mxfile>
